<?xml version="1.0" standalone="no"?>
<!DOCTYPE svg PUBLIC "-//W3C//DTD SVG 20010904//EN"
 "http://www.w3.org/TR/2001/REC-SVG-20010904/DTD/svg10.dtd">
<svg version="1.0" xmlns="http://www.w3.org/2000/svg"
 width="512.000000pt" height="512.000000pt" viewBox="0 0 512.000000 512.000000"
 preserveAspectRatio="xMidYMid meet">
<metadata>
Created by potrace 1.11, written by Peter Selinger 2001-2013
</metadata>
<g transform="translate(0.000000,512.000000) scale(0.100000,-0.100000)"
fill="#000000" stroke="none">
<path d="M539 3877 c-19 -12 -42 -38 -52 -57 -16 -33 -17 -110 -15 -1272 l3
-1237 21 -28 c11 -15 36 -38 54 -51 l33 -22 1461 2 1461 3 34 24 c18 13 42 42
52 65 18 39 19 82 19 822 l0 781 218 93 c119 51 240 103 267 115 84 38 245
105 250 105 3 0 5 -295 5 -655 0 -360 -2 -655 -5 -655 -2 0 -95 45 -205 100
-242 120 -266 124 -343 52 -54 -51 -56 -132 -5 -197 25 -33 666 -355 705 -355
46 0 108 37 131 79 l22 39 0 934 0 935 -23 33 c-60 90 -115 95 -272 26 -60
-26 -180 -77 -265 -113 -85 -36 -189 -80 -230 -98 -524 -223 -510 -216 -536
-267 -14 -28 -16 -117 -18 -797 l-1 -766 -1155 -3 c-635 -2 -1206 0 -1267 3
l-113 7 0 1033 c0 933 2 1033 16 1039 9 3 577 6 1264 6 l1248 0 4 -93 c5 -113
25 -154 94 -187 53 -26 102 -21 150 15 57 43 64 74 64 266 0 195 -10 234 -73
277 l-33 22 -1466 0 -1465 0 -34 -23z"/>
<path d="M1604 3146 c-38 -17 -71 -57 -85 -105 -6 -24 -9 -198 -7 -508 3 -460
3 -472 24 -500 34 -46 82 -73 129 -73 35 0 122 40 511 235 306 154 478 245
496 265 46 50 49 140 7 194 -30 38 -967 506 -1012 506 -17 -1 -46 -7 -63 -14z
m230 -408 c-4 -7 -3 -8 5 -4 11 7 371 -161 371 -173 0 -6 -177 -97 -332 -172
l-58 -28 0 194 c0 131 3 195 11 195 5 0 7 -5 3 -12z"/>
</g>
</svg>
